<svg width="200" height="200" viewBox="0 0 200 200" fill="none" xmlns="http://www.w3.org/2000/svg">
<path d="M0 40C0 17.9086 17.9086 0 40 0H160C182.091 0 200 17.9086 200 40V160C200 182.091 182.091 200 160 200H40C17.9086 200 0 182.091 0 160V40Z" fill="white"/>
<path d="M110.127 60.3953C104.476 60.3953 100.511 59.5294 98.2327 57.7976C95.954 55.9747 94.678 53.6049 94.4045 50.6882C94.4045 46.4044 95.954 42.2117 99.053 38.1101C102.243 33.9174 106.937 31.821 113.135 31.821C118.421 31.821 122.113 32.8692 124.209 34.9656C126.306 36.9708 127.354 39.5229 127.354 42.6218C127.354 46.0854 125.987 49.9135 123.252 54.1062C120.609 58.2989 116.234 60.3953 110.127 60.3953ZM76.6311 172.368C69.2483 172.368 63.415 170.499 59.1311 166.762C54.9384 162.934 52.842 157.01 52.842 148.989C52.842 143.429 53.8446 137.915 55.8499 132.446C57.9462 126.886 60.2249 121.691 62.6858 116.86C65.2379 111.938 67.2431 107.654 68.7014 104.009C69.1571 102.824 69.9319 101.001 71.0256 98.5398C72.2105 96.0789 73.441 93.5723 74.717 91.0203L79.3655 81.45C80.915 78.8979 82.6923 77.075 84.6975 75.9812C86.7027 74.8875 88.7535 74.3406 90.8499 74.3406C94.3134 74.3406 97.2756 75.4799 99.7366 77.7585C102.289 79.946 103.565 82.7716 103.565 86.2351C103.474 87.0554 103.337 87.8757 103.155 88.696C103.063 89.5164 102.79 90.3367 102.334 91.157C100.329 94.8028 98.5972 98.2208 97.1389 101.411C95.6806 104.51 94.1767 107.654 92.6272 110.844C91.3512 113.488 89.7561 116.723 87.842 120.552C85.928 124.38 84.2418 128.253 82.7834 132.173C81.3251 136.001 80.5959 139.419 80.5959 142.427C80.5959 144.887 81.1884 146.528 82.3733 147.348C83.6493 148.078 85.4267 148.442 87.7053 148.442C91.3512 148.442 95.3616 147.303 99.7366 145.024C104.203 142.746 108.441 139.92 112.451 136.548C116.644 133.175 120.518 129.757 124.073 126.294C127.627 122.739 130.27 119.868 132.002 117.68C133.734 115.949 135.557 115.083 137.471 115.083C139.112 115.083 140.433 115.812 141.436 117.27C142.53 118.729 143.076 120.597 143.076 122.876C143.076 124.972 142.53 127.205 141.436 129.575C140.433 131.945 138.747 134.178 136.377 136.274C130.362 142.381 124.073 148.214 117.51 153.774C110.948 159.243 104.203 163.709 97.2756 167.173C90.4397 170.636 83.5582 172.368 76.6311 172.368Z" fill="black"/>
</svg>
