<svg width="24" height="24" viewBox="0 0 24 24" fill="none" xmlns="http://www.w3.org/2000/svg">
<path d="M12 2C14.6522 2 17.1957 3.05357 19.0711 4.92893C20.9464 6.8043 22 9.34784 22 12C22 14.6522 20.9464 17.1957 19.0711 19.0711C17.1957 20.9464 14.6522 22 12 22C9.34784 22 6.8043 20.9464 4.92893 19.0711C3.05357 17.1957 2 14.6522 2 12C2 9.34784 3.05357 6.8043 4.92893 4.92893C6.8043 3.05357 9.34784 2 12 2ZM12 3.22375C7.17375 3.22375 3.25 7.1475 3.25 12C3.24774 13.8447 3.82687 15.6431 4.9051 17.1399C5.98333 18.6366 7.50582 19.7555 9.25625 20.3375L9.23375 20.3337C9.67125 20.4137 9.83125 20.1425 9.83125 19.91L9.81875 18.4175C7.9075 18.8337 7.18125 17.8687 6.95625 17.4362L6.8725 17.24C6.475 16.2263 5.90125 15.9562 5.90125 15.9562C5.10625 15.4112 5.96125 15.4225 5.96125 15.4225C6.58875 15.4662 7.00375 15.91 7.18875 16.1587L7.30125 16.3275C8.08125 17.6687 9.34875 17.2813 9.8475 17.0563C9.9275 16.4888 10.1525 16.1025 10.4025 15.8825L10.0488 15.8363C8.22 15.5613 6.4175 14.7038 6.4175 11.5438C6.4175 10.585 6.75875 9.80125 7.3175 9.1875L7.2525 8.995C7.1425 8.62 7.0175 7.84625 7.40375 6.865L7.51 6.8475C7.7675 6.82625 8.5025 6.875 9.81 7.765C10.5237 7.56995 11.2601 7.47033 12 7.46875C12.7438 7.4725 13.4925 7.56875 14.1913 7.765C15.8613 6.6275 16.595 6.865 16.595 6.865C17.0725 8.07375 16.7725 8.965 16.6825 9.1875C17.2425 9.80125 17.5825 10.585 17.5825 11.5438C17.5825 14.9163 15.535 15.6587 13.5863 15.8762C13.9 16.1475 14.18 16.6825 14.18 17.5013L14.17 19.91C14.17 20.14 14.32 20.4075 14.745 20.3375C16.4952 19.7552 18.0174 18.6363 19.0954 17.1396C20.1734 15.6429 20.7523 13.8445 20.75 12C20.75 7.1475 16.8263 3.22375 12 3.22375Z" fill="#F2F2F2"/>
</svg>
