<svg width="24" height="24" viewBox="0 0 24 24" fill="none" xmlns="http://www.w3.org/2000/svg">
<path d="M20.3125 2.5C20.6034 2.50004 20.8841 2.60682 21.1014 2.8001C21.3188 2.99338 21.4577 3.2597 21.4917 3.54856L21.5 3.6875V20.3125C21.5 20.6034 21.3932 20.8841 21.1999 21.1014C21.0066 21.3188 20.7403 21.4577 20.4514 21.4917L20.3125 21.5H3.6875C3.39664 21.5 3.11591 21.3932 2.89856 21.1999C2.6812 21.0066 2.54234 20.7403 2.50831 20.4514L2.5 20.3125V3.6875C2.50004 3.39664 2.60682 3.11591 2.8001 2.89856C2.99338 2.6812 3.2597 2.54234 3.54856 2.50831L3.6875 2.5H20.3125ZM20.3125 3.6875H3.6875V20.3125H20.3125V3.6875ZM14.8975 9.72237C17.3105 9.72237 17.8211 11.2566 17.852 13.2896V17.8532H15.3891V13.7385C15.3773 12.8704 15.2585 11.8907 14.1078 11.8907C12.8859 11.8907 12.6508 12.8004 12.6306 13.7812L12.6294 17.8532H10.1653V9.92069H12.5308V11.0037H12.5641C12.8004 10.599 13.1422 10.2661 13.553 10.0404C13.9637 9.81477 14.4292 9.70484 14.8975 9.72237ZM8.618 9.9195V17.852H6.15156V9.9195H8.618ZM7.38537 5.977C7.57652 5.97149 7.76683 6.00438 7.94504 6.07372C8.12325 6.14307 8.28574 6.24745 8.42289 6.38071C8.56004 6.51396 8.66907 6.67337 8.74352 6.84951C8.81797 7.02565 8.85633 7.21493 8.85633 7.40616C8.85633 7.59738 8.81797 7.78666 8.74352 7.9628C8.66907 8.13894 8.56004 8.29835 8.42289 8.43161C8.28574 8.56486 8.12325 8.66925 7.94504 8.73859C7.76683 8.80793 7.57652 8.84082 7.38537 8.83531C7.00618 8.83531 6.64252 8.68468 6.37439 8.41655C6.10626 8.14842 5.95563 7.78476 5.95563 7.40556C5.95563 7.02637 6.10626 6.66271 6.37439 6.39458C6.64252 6.12645 7.00618 5.977 7.38537 5.977Z" fill="#F2F2F2"/>
</svg>
